<mxfile host="app.diagrams.net" modified="2024-07-06T04:41:09.179Z" agent="Mozilla/5.0 (Macintosh; Intel Mac OS X 10_15_7) AppleWebKit/537.36 (KHTML, like Gecko) Chrome/126.0.0.0 Safari/537.36" etag="m5LNoAlbi5G5hn-p7B5p" border="50" scale="3" compressed="false" locked="false" version="24.2.1" type="github">
  <diagram name="Blank" id="YmL12bMKpDGza6XwsDPr">
    <mxGraphModel dx="1342" dy="409" grid="0" gridSize="10" guides="1" tooltips="1" connect="1" arrows="1" fold="1" page="0" pageScale="1" pageWidth="827" pageHeight="1169" background="none" math="1" shadow="0">
      <root>
        <mxCell id="X5NqExCQtvZxIxQ7pmgY-0" />
        <mxCell id="1" parent="X5NqExCQtvZxIxQ7pmgY-0" />
        <mxCell id="NlgJ36APBE8GdAoOW9A3-1" value="" style="shape=cube;whiteSpace=wrap;html=1;boundedLbl=1;backgroundOutline=1;darkOpacity=0.05;darkOpacity2=0.1;" vertex="1" parent="1">
          <mxGeometry x="-490" y="389" width="120" height="80" as="geometry" />
        </mxCell>
        <mxCell id="NlgJ36APBE8GdAoOW9A3-5" value="" style="curved=1;endArrow=classic;html=1;rounded=0;orthogonalLoop=0;" edge="1" parent="1">
          <mxGeometry width="50" height="50" relative="1" as="geometry">
            <mxPoint x="-582" y="453" as="sourcePoint" />
            <mxPoint x="-532" y="403" as="targetPoint" />
            <Array as="points">
              <mxPoint x="-532" y="453" />
              <mxPoint x="-582" y="403" />
            </Array>
          </mxGeometry>
        </mxCell>
      </root>
    </mxGraphModel>
  </diagram>
</mxfile>
